<?xml version="1.0" encoding="iso-8859-1"?>
<!-- Generator: Adobe Illustrator 19.0.0, SVG Export Plug-In . SVG Version: 6.00 Build 0)  -->
<svg version="1.1" id="Capa_1" xmlns="http://www.w3.org/2000/svg" xmlns:xlink="http://www.w3.org/1999/xlink" x="0px" y="0px"
	 viewBox="0 0 512.001 512.001" style="enable-background:new 0 0 512.001 512.001;" xml:space="preserve">
<path style="fill:#77B255;" d="M362.651,341.338c-2.816,0-5.646-0.839-8.135-2.575c-93.054-65.136-173.023-175.868-218.974-248.014
	c24.149,149.741,14.179,234.063,13.681,238.13c-0.981,7.794-8.007,13.226-15.872,12.345c-7.779-0.967-13.326-8.064-12.358-15.857
	c0.142-1.123,13.312-114.244-28.245-308.159c-1.479-6.926,2.375-13.909,9.031-16.327c6.641-2.461,14.094,0.384,17.436,6.656
	c1.123,2.105,113.874,211.507,251.598,307.931c6.443,4.495,8.007,13.369,3.499,19.797
	C371.553,339.233,367.131,341.338,362.651,341.338"/>
<path style="fill:#5C913B;" d="M370.439,125.426c-49.436,13.653-71.835,36.209-152.885,9.486
	c-67.127-22.143-100.079-59.831-90.238-89.669c9.841-29.823,45.225-44.984,112.367-22.841
	C307.223,44.674,298.321,71.681,370.439,125.426"/>
<g>
	<path style="fill:#BE1931;" d="M476.439,398.226c0,62.832-50.942,113.775-113.775,113.775s-113.775-50.942-113.775-113.775
		s50.942-113.775,113.775-113.775S476.439,335.394,476.439,398.226"/>
	<path style="fill:#BE1931;" d="M263.111,398.226c0,62.832-50.929,113.775-113.775,113.775
		c-62.832,0-113.775-50.942-113.775-113.775s50.942-113.775,113.775-113.775C212.183,284.451,263.111,335.394,263.111,398.226"/>
</g>
<g>
</g>
<g>
</g>
<g>
</g>
<g>
</g>
<g>
</g>
<g>
</g>
<g>
</g>
<g>
</g>
<g>
</g>
<g>
</g>
<g>
</g>
<g>
</g>
<g>
</g>
<g>
</g>
<g>
</g>
</svg>
